<?xml version="1.0" encoding="utf-8"?>
<!-- Generator: Adobe Illustrator 19.1.0, SVG Export Plug-In . SVG Version: 6.00 Build 0)  -->
<svg version="1.1" id="all" xmlns="http://www.w3.org/2000/svg" xmlns:xlink="http://www.w3.org/1999/xlink" x="0px" y="0px"
	 viewBox="-250 177 290 260" style="enable-background:new -250 177 290 260;" xml:space="preserve">
<style type="text/css">
	.st0{enable-background:new    ;}
	.st1{fill:#231F20;}
</style>
<g id="box">
	<g class="st0">
		<g>
			<g>
				<polygon class="st1" points="-162.3,309.8 -186.9,307.3 -187.2,307.3 -162.4,302.8 -162.4,302.9 -186.9,307.3 -162.3,309.7 
					-162.3,309.7 				"/>
				<polygon class="st1" points="-162.1,309.9 -162.3,309.9 -188.2,307.3 -162.3,302.7 -162.3,303 -185.9,307.2 -162.1,309.6 				
					"/>
			</g>
			<g>
				<polygon class="st1" points="-162.2,312.7 -162.2,312.8 -186.8,310.2 -187.2,310.2 -215.1,307.4 -215.1,307.3 -187.2,310.2 
					-186.8,310.2 				"/>
				<polygon class="st1" points="-162,312.9 -215.2,307.5 -215.2,307.2 -162,312.6 				"/>
			</g>
		</g>
		<g>
			<g>
				<polygon class="st1" points="-93,307.1 -93.3,307.2 -125.1,313.5 -125.1,313.5 -154.3,310.6 -162.3,309.8 -162.3,309.7 
					-154.3,310.5 -125.1,313.5 -93.3,307.2 -154.5,301.5 -162.4,302.9 -162.4,302.8 -154.5,301.4 				"/>
				<polygon class="st1" points="-125.1,313.6 -125.1,313.6 -162.4,309.9 -162.4,309.6 -154.3,310.4 -125.1,313.3 -94.2,307.2 
					-154.5,301.6 -162.6,303 -162.6,302.7 -154.5,301.3 -154.5,301.3 -92.1,307.1 -93.3,307.3 				"/>
			</g>
			<g>
				<polygon class="st1" points="-64.2,307.1 -64.2,307.2 -92.9,313.1 -93.2,313.1 -115,317.6 -113.4,406.6 -113.5,406.6 
					-115.1,317.6 -125,316.6 -125,316.6 -154.2,313.6 -162.2,312.8 -162.2,312.7 -154.2,313.5 -125,316.5 -125,316.5 -115.1,317.6 
					-93.2,313.1 -92.9,313 				"/>
				<polygon class="st1" points="-113.3,406.7 -113.6,406.7 -113.6,406.6 -115.2,317.7 -162.3,312.9 -162.3,312.6 -115.1,317.4 
					-64,307 -64,307.3 -114.9,317.7 				"/>
			</g>
		</g>
		<g>
			<g>
				<polygon class="st1" points="-115.1,317.6 -115.1,317.6 -125,316.6 -125,316.6 -154.2,313.6 -162.2,312.8 -186.8,310.2 
					-187.2,310.2 -215.1,307.4 -215.1,307.3 -187.2,310.2 -186.8,310.2 -162.2,312.7 -154.2,313.5 -125,316.5 -125,316.5 				"/>
				<polygon class="st1" points="-115,317.7 -215.2,307.5 -215.2,307.2 -115,317.4 				"/>
			</g>
		</g>
		<g>
			<g>
				<path class="st1" d="M-154.5,301.4l-7.9,1.4l-24.8,4.4h0.4l24.6,2.5l8,0.8l29.2,2.9l0,0l31.7-6.3l0.4-0.1L-154.5,301.4z
					 M-125.1,313.5l-29.2-2.9l-8-0.8l0,0l-24.6-2.5l24.5-4.4l7.9-1.4l61.2,5.7L-125.1,313.5z"/>
				<path class="st1" d="M-125.1,313.6L-125.1,313.6l-63.1-6.3l33.6-6l0,0l62.4,5.8l-1.2,0.2L-125.1,313.6z M-162.1,309.6l37,3.7
					l30.9-6.1l-60.3-5.6l-31.5,5.6L-162.1,309.6z"/>
			</g>
		</g>
		<g>
			<g>
				<polygon class="st1" points="-64.2,307.1 -64.2,307.2 -92.9,313.1 -93.2,313.1 -115,317.6 -113.4,406.6 -113.4,411 
					-113.2,421.6 -113.2,421.7 -113,431.7 -113,431.7 -113.2,421.7 -113.2,421.6 -113.4,411 -113.5,406.6 -115.1,317.6 
					-115.1,317.6 -93.2,313.1 -92.9,313 				"/>
				<polygon class="st1" points="-113.2,431.9 -113.6,406.6 -115.2,317.6 -115.2,317.4 -64,307 -64,307.3 -114.9,317.7 
					-113.3,406.6 -112.9,431.8 				"/>
			</g>
		</g>
		<g>
			<g>
				<polygon class="st1" points="-63.2,415.1 -113,431.7 -113.2,421.7 -113.2,421.6 -113.4,411 -113.4,406.6 -115,317.6 
					-93.2,313.1 -92.9,313.1 -64.2,307.2 				"/>
				<path class="st1" d="M-113.1,431.9l-2.1-114.4h0.1l51-10.5l1,108.2h-0.1L-113.1,431.9z M-114.9,317.7l1.6,88.9l0.4,25l49.5-16.5
					l-0.9-107.7L-114.9,317.7z"/>
			</g>
			<g>
				<polygon class="st1" points="-62.9,415.1 -113,431.8 -113,431.7 -63.2,415.1 -64.2,307.2 -63.8,307.1 				"/>
				<path class="st1" d="M-113.1,432v-0.4h0.1l49.7-16.6l-1-108l0.6-0.1l0.9,108.3h-0.1L-113.1,432z M-64,307.3l1,107.8h0.1
					L-64,307.3L-64,307.3z"/>
			</g>
		</g>
		<g>
			<g>
				<polygon class="st1" points="-113,431.7 -211.3,413.1 -215.1,307.4 -187.2,310.2 -186.8,310.2 -162.2,312.8 -154.2,313.6 
					-125,316.6 -125,316.6 -115.1,317.6 -113.5,406.6 -113.4,411 -113.2,421.6 -113.2,421.7 				"/>
				<path class="st1" d="M-112.9,431.9h-0.2l-98.3-18.6v-0.1l-3.8-105.9l100.2,10.2v0.1l1.6,89L-112.9,431.9z M-211.1,413l98,18.6
					l-2.1-113.9l-99.7-10.2L-211.1,413z"/>
			</g>
			<g>
				<polygon class="st1" points="-113,431.8 -211.6,413.1 -215.4,307.3 -215.1,307.4 -211.3,413.1 -113,431.7 -113.2,421.7 
					-113.2,421.6 -113.4,411 -113.5,406.6 -115.1,317.6 -115,317.6 -113.4,406.6 -113.4,411 -113.2,421.6 -113.2,421.7 -113,431.7 
									"/>
				<path class="st1" d="M-112.9,432h-0.2l-98.7-18.7v-0.1l-3.8-106l0.6,0.1l3.9,105.7l98,18.6l-2.1-114.1h0.3L-112.9,432z
					 M-211.5,413L-211.5,413l-3.7-105.6h-0.1L-211.5,413z"/>
			</g>
		</g>
		<g>
			<g>
				<path class="st1" d="M-125,316.5l-29.2-3v0.1L-125,316.5L-125,316.5z M-125,316.5l-29.2-3v0.1L-125,316.5L-125,316.5z
					 M-162.6,298.1l-52.8,9.2h0.4l27.9,2.9h0.4l24.6,2.5l8,0.8l29.2,3l0,0l9.9,1l0,0l21.8-4.5l0.4-0.1l28.7-5.9l0.4-0.1
					L-162.6,298.1z M-92.9,313l-0.3,0.1l-21.9,4.5l-9.9-1l0,0l-29.2-3l-8-0.8l-24.6-2.5h-0.4l-27.9-2.9l52.5-9.1l98.4,9L-92.9,313z
					 M-125,316.5l-29.2-3v0.1L-125,316.5L-125,316.5z"/>
				<path class="st1" d="M-115,317.7L-115,317.7l-9.9-1l0,0l-91.5-9.4l53.8-9.4l0,0L-63,307l-1.2,0.3L-115,317.7z M-125,316.4
					L-125,316.4l9.9,1l50-10.3l-97.5-8.9l-51.5,9L-125,316.4z"/>
			</g>
		</g>
	</g>
</g>
<g id="arrow">
	<path class="st1" d="M-148,301l-3.8-3.6c14.1-15.2,51.7-50.3,96.2-49l-0.1,5.2c-0.7,0-1.5,0-2.2,0C-99.4,253.6-134.6,286.6-148,301
		z"/>
	<g>
		<polygon class="st1" points="-153.5,293.5 -156.1,306.3 -143.8,302.2 		"/>
	</g>
</g>
<path id="glass" class="st1" d="M-36.9,269.3l-2.1-60.7c0,0,0.8-8.5,5.1-13.3s10.1-8.7,17.9-8.6c7.8,0.1,22.2,7.4,22.3,21
	c0.2,13.6-2,61.5-2,61.5s-1.7,9.5-20.1,9.4C-34.2,278.5-36.9,269.3-36.9,269.3z"/>
</svg>
